<svg xmlns="http://www.w3.org/2000/svg" version="1.1" xmlns:xlink="http://www.w3.org/1999/xlink" width="86" height="86" x="0" y="0" viewBox="0 0 510.318 510.318" style="enable-background:new 0 0 512 512" xml:space="preserve" class=""><g><path fill="#27d1b3" d="M504.5 269.359c0 49.22-38.97 89.32-87.74 91.18a106.072 106.072 0 0 1-24.55 28.47l12.589 60.441c1.94 9.315-5.17 18.059-14.685 18.059H351.78a7.338 7.338 0 0 1-6.24-3.479v-.001c-16.62-26.88-40.17-48.81-68.21-63.39a105.85 105.85 0 0 1-23.97-17.11c-10.35 3.39-21.4 5.23-32.88 5.23-13.33 0-26.08-2.47-37.82-6.99-21.61-8.31-39.78-23.52-51.83-42.95-5.6.92-11.36 1.41-17.23 1.41-58.6 0-106.1-47.51-106.1-106.11 0-43.39 26.04-80.68 63.35-97.13 9.05-40.87 45.48-71.45 89.08-71.45 11.81 0 23.09 2.27 33.45 6.36 16.66-17.89 40.4-29.09 66.78-29.09 1.6 0 3.19.04 4.77.12 29.08 1.5 54.55 16.63 70.18 39.1a91.11 91.11 0 0 1 31.72-5.67c50.4 0 91.26 40.86 91.26 91.27 0 7.2-.86 14.2-2.44 20.93 29.04 15.27 48.85 45.71 48.85 80.8z" opacity="1" data-original="#fee265" class=""></path><path fill="#20b69f" d="M504.5 269.359c0 49.22-38.97 89.32-87.74 91.18a106.072 106.072 0 0 1-24.55 28.47l12.589 60.441c1.94 9.315-5.17 18.059-14.685 18.059H351.78a7.338 7.338 0 0 1-6.24-3.479v-.001c-16.62-26.88-40.17-48.81-68.21-63.39a105.85 105.85 0 0 1-23.97-17.11c-10.35 3.39-21.4 5.23-32.88 5.23-13.33 0-26.08-2.47-37.82-6.99-10.8-30 3.22-88.04 29.18-85.53 22.65 2.19 63.33 14.02 83.51-20.92 8.3-14.38-.35-38.42 11.07-60 49.74-94.07-21.11-166.69-60.75-171.36l19.26-1.03c29.08 1.5 54.55 16.63 70.18 39.1a91.11 91.11 0 0 1 31.72-5.67c50.4 0 91.26 40.86 91.26 91.27 0 7.2-.86 14.2-2.44 20.93 29.04 15.27 48.85 45.71 48.85 80.8z" opacity="1" data-original="#fdd330" class=""></path><path fill="#27d1b3" d="M458.09 167.629c0 7.2-.86 14.2-2.44 20.93l-104.23 50.87-3.54-19.21c-3.99-21.61-3.87-43.87 1.14-65.26 1.57-6.71 2.4-13.7 2.4-20.89 0-19.34-6.02-37.28-16.29-52.05a91.223 91.223 0 0 1 31.7-5.66c50.4 0 91.26 40.86 91.26 91.27z" opacity="1" data-original="#fc9744" class=""></path><path fill="#20b69f" d="M458.09 167.629c0 7.2-.86 14.2-2.44 20.93l-32.03 15.63a98.867 98.867 0 0 0 2.22-20.78c0-51.39-39-93.67-89.01-98.85-.55-.85-1.12-1.7-1.7-2.54a91.223 91.223 0 0 1 31.7-5.66c50.4 0 91.26 40.86 91.26 91.27z" opacity="1" data-original="#fb8627" class=""></path><path fill="#27d1b3" d="M115.06 283.339c0 20.36 5.77 39.37 15.77 55.48-5.6.92-11.36 1.41-17.23 1.41-58.6 0-106.1-47.51-106.1-106.11 0-43.39 26.04-80.68 63.35-97.13l73.47 73.47c-18.13 18.93-29.26 44.6-29.26 72.88z" opacity="1" data-original="#1c96f9" class=""></path><path fill="#20b69f" d="M115.06 283.339c0 20.36 5.77 39.37 15.77 55.48-5.6.92-11.36 1.41-17.23 1.41-7.07 0-13.99-.69-20.67-2.02-10.48-44.05 4.41-75.1 4.41-75.1-52.13-33.22-58.74-80.99-58.53-104.23 9.19-9.13 20.03-16.59 32.04-21.89l73.47 73.47c-18.13 18.93-29.26 44.6-29.26 72.88z" opacity="1" data-original="#1785f8" class=""></path><path fill="#27d1b3" d="M220.48 177.919c-44.26 0-82.15 27.28-97.77 65.94-25.77-14.18-52.061-53.506-54.04-87.06-.172-2.916.25-7.84.74-11.66 5.72-44.89 44.07-79.6 90.52-79.6 16.73 0 32.41 4.5 45.89 12.36 6.83 3.98 13.39 8.54 18.64 14.37 21.21 23.54 24.18 60.23-3.98 85.65z" opacity="1" data-original="#27d1b3" class=""></path><path fill="#20b69f" d="M220.48 177.919c-6.36 0-12.58.56-18.63 1.64 14.72-23.65 9.66-52.13-7.89-71.6-5.25-5.83-11.81-10.39-18.64-14.37-13.48-7.86-29.16-12.36-45.89-12.36-8.92 0-17.55 1.28-25.7 3.67 15.48-12.13 35-19.36 56.2-19.36 16.73 0 32.41 4.5 45.89 12.36 6.83 3.98 13.39 8.54 18.64 14.37 21.21 23.54 24.18 60.23-3.98 85.65z" opacity="1" data-original="#20b69f" class=""></path><path fill="#27d1b3" d="M504.5 269.359c0 49.22-38.97 89.32-87.74 91.18a106.072 106.072 0 0 1-24.55 28.47l12.589 60.441c1.94 9.315-5.17 18.059-14.685 18.059H351.78a7.338 7.338 0 0 1-6.24-3.479v-.001c-16.62-26.88-40.17-48.81-68.21-63.39a105.85 105.85 0 0 1-23.97-17.11c-10.35 3.39-21.4 5.23-32.88 5.23-18.099 0-35.133-4.563-50.016-12.601-21.679-11.709-29.909-40.356-20.866-62.229 12.058-29.166 49.126-38.871 74.407-19.978 11.429 8.541 25.615 13.598 40.985 13.598 30.93 0 56.299-5.653 65.6-48.65 2.272-10.339 5.328-19.318 8.991-27.104 33.17-70.501 116.069-43.236 116.069-43.236 29.04 15.27 48.85 45.71 48.85 80.8z" opacity="1" data-original="#fb6672" class=""></path><path fill="#20b69f" d="M504.5 269.359c0 49.22-38.97 89.32-87.74 91.18a106.072 106.072 0 0 1-24.55 28.47l12.589 60.441c1.94 9.315-5.17 18.059-14.685 18.059H371.27l-13.377-64.224c-1.754-8.419.878-17.089 6.829-23.298a105.835 105.835 0 0 0 14.748-19.449c48.77-1.86 87.74-41.96 87.74-91.18 0-35.09-19.81-65.53-48.85-80.8 0 0-6.72-2.21-17.1-3.75 28.58-4.74 54.39 3.75 54.39 3.75 29.04 15.271 48.85 45.711 48.85 80.801z" opacity="1" data-original="#fb4a59" class=""></path><path d="M504.204 279.942a7.502 7.502 0 0 0-8.822 5.89c-3.624 18.178-13.411 34.887-27.558 47.049-14.29 12.285-32.526 19.444-51.349 20.16-.562.021-2.688.083-3.236.083-22.901 0-44.284-9.067-60.21-25.531a7.5 7.5 0 1 0-10.781 10.429c16.351 16.902 37.581 27.189 60.623 29.567a98.258 98.258 0 0 1-15.384 15.59 7.5 7.5 0 0 0-2.621 7.357l12.59 60.442a7.47 7.47 0 0 1-1.524 6.261 7.467 7.467 0 0 1-5.819 2.769h-38.244c-17.56-28.378-41.947-51.111-70.531-65.748a97.763 97.763 0 0 1-13.517-8.396 112.26 112.26 0 0 0 17.322-9.935 7.5 7.5 0 1 0-8.599-12.291 97.333 97.333 0 0 1-26.477 13.055 97.865 97.865 0 0 1-29.583 4.57c-16.302 0-31.916-3.966-45.747-11.266a7.744 7.744 0 0 0-.707-.437c-17.42-9.409-25.434-33.572-17.499-52.765 4.783-11.57 14.589-20.149 26.904-23.537 12.597-3.467 25.746-1.022 36.083 6.701 13.209 9.872 28.935 15.091 45.475 15.091 14.459 0 31.083-1.101 44.755-9.262 14.198-8.476 23.414-23.294 28.17-45.279 2.066-9.403 4.91-17.99 8.453-25.52 12.462-26.489 33.94-41.204 63.836-43.735 20.954-1.775 39.144 3.248 42.536 4.258 22.348 11.975 37.902 33.009 42.714 57.82a7.5 7.5 0 1 0 14.725-2.856c-5.364-27.661-22.034-51.342-46.089-65.773a98.803 98.803 0 0 0 1.497-17.076c0-54.458-44.305-98.763-98.762-98.763a98.55 98.55 0 0 0-28.936 4.315c-18.676-23.811-47.328-37.868-77.734-37.868-25.616 0-50.392 10.104-68.744 27.882a98.227 98.227 0 0 0-31.483-5.152 98.822 98.822 0 0 0-28.242 4.12 7.5 7.5 0 1 0 4.287 14.375 83.795 83.795 0 0 1 23.956-3.495 83.326 83.326 0 0 1 30.699 5.832c.096.038.196.057.294.091a83.546 83.546 0 0 1 11.122 5.417c7.49 4.363 12.842 8.465 16.844 12.909 17.298 19.199 22.034 50.142-1.464 73.195-11.856.316-23.495 2.446-34.635 6.39a7.5 7.5 0 0 0-4.567 9.573c1.383 3.905 5.671 5.953 9.573 4.567 10.485-3.713 21.483-5.595 32.687-5.595 13.536 0 23.177 2.239 31.683 4.214 6.892 1.601 13.401 3.112 20.573 3.112 15.949 0 30.442-7.968 38.769-21.313 8.695-13.935 9.09-31.31 1.084-47.67a7.498 7.498 0 0 0-10.034-3.439 7.5 7.5 0 0 0-3.44 10.033c5.765 11.78 5.646 23.549-.336 33.136-5.569 8.926-15.305 14.254-26.043 14.254-5.453 0-10.888-1.262-17.18-2.724-5.439-1.262-11.702-2.714-19.271-3.644 7.822-11.019 12.087-23.719 12.195-36.927.141-17.076-6.412-33.84-18.451-47.202-5.071-5.631-11.565-10.661-20.435-15.828a96.114 96.114 0 0 0-3.031-1.69c14.999-12.576 33.668-19.42 53.589-19.42 27.397 0 53.116 13.46 68.798 36.005.045.065.103.117.15.181 9.691 14.022 14.817 30.466 14.817 47.573 0 6.48-.741 12.934-2.202 19.18-4.736 20.216-5.438 41.435-2.099 63.073a103.031 103.031 0 0 0-6.823 12.281c-4.019 8.542-7.225 18.193-9.536 28.711-7.771 35.926-26.475 42.736-58.269 42.736-13.278 0-25.898-4.187-36.495-12.106-14.073-10.518-31.948-13.852-49.042-9.148-16.813 4.626-30.221 16.388-36.787 32.27-3.446 8.335-4.718 17.241-4.088 25.941a107.28 107.28 0 0 1-1.058-1.646l.065-.004c-9.508-15.076-15.025-32.907-15.025-52.014 0-12.698 2.431-25.036 7.011-36.465.054-.123.1-.247.147-.371 6.169-15.213 16.164-28.799 29.366-39.441a7.5 7.5 0 1 0-9.413-11.678c-12.856 10.362-23.069 23.148-30.221 37.439-20.378-15.105-41.574-47.297-43.295-76.467-.118-1.997.161-6.121.693-10.271a83.533 83.533 0 0 1 1.251-7.228c.021-.083.052-.163.07-.247 4.077-18.413 14.459-35.119 29.233-47.04a7.5 7.5 0 1 0-9.42-11.674c-16.424 13.254-28.245 31.535-33.57 51.799C25.158 150.566 0 190.362 0 234.12c0 62.642 50.963 113.604 113.604 113.604 4.508 0 9.046-.271 13.547-.808 21.097 30.991 55.628 49.346 93.332 49.346 10.53 0 20.93-1.449 30.98-4.313A112.977 112.977 0 0 0 274.5 407.61c26.174 13.402 48.532 34.275 64.658 60.363a14.741 14.741 0 0 0 12.618 7.033h38.336a22.408 22.408 0 0 0 17.457-8.305 22.404 22.404 0 0 0 4.57-18.783l-11.679-56.067a112.856 112.856 0 0 0 20.643-24.063c20.75-1.658 40.677-9.932 56.499-23.534 16.676-14.336 28.214-34.043 32.49-55.492a7.499 7.499 0 0 0-5.888-8.82zm-53.617-112.316c0 3.874-.28 7.764-.825 11.634-8.753-1.961-23.597-4.341-40.308-2.996-22.786 1.828-41.885 9.997-56.546 23.963-1.01-14.924.127-29.523 3.414-43.559a99.356 99.356 0 0 0 2.597-22.599c0-3.355-.183-6.686-.515-9.989 13.255-2.408 26.911 1.746 36.581 11.414 1.464 1.465 3.384 2.197 5.303 2.197s3.839-.732 5.303-2.196a7.5 7.5 0 0 0 0-10.606 56.18 56.18 0 0 0-49.817-15.589 97.881 97.881 0 0 0-9.151-22.96 83.71 83.71 0 0 1 20.201-2.477c46.188 0 83.763 37.576 83.763 83.763zM15 234.12c0-34.287 17.802-65.769 46.333-83.62-.167 2.284-.267 4.749-.15 6.741 1.898 32.168 25.269 71.626 52.342 89.786a112.079 112.079 0 0 0-1.806 5.851c-4.565 1.81-9.393 2.727-14.381 2.727-17.094 0-32.491-11.417-37.441-27.764a7.498 7.498 0 0 0-9.352-5.004 7.5 7.5 0 0 0-5.004 9.352c6.959 22.978 27.775 38.416 51.798 38.416 3.764 0 7.463-.389 11.077-1.141-.559 4.57-.854 9.201-.854 13.876 0 17.641 4.077 34.341 11.326 49.224-1.763.094-3.526.16-5.284.16C59.234 332.725 15 288.491 15 234.12z" fill="#000000" opacity="1" data-original="#000000" class=""></path><path d="M131.6 128.348c8.039-7.887 18.66-12.229 29.907-12.229s21.868 4.343 29.907 12.229a7.471 7.471 0 0 0 5.252 2.146 7.5 7.5 0 0 0 5.253-12.853c-10.86-10.654-25.212-16.522-40.412-16.522s-29.552 5.868-40.412 16.522a7.498 7.498 0 0 0-.101 10.605 7.5 7.5 0 0 0 10.606.102zM399.223 300.042c-10.018 0-19.483-3.862-26.652-10.874a7.5 7.5 0 1 0-10.488 10.722c9.989 9.771 23.179 15.151 37.141 15.151 29.296 0 53.13-23.834 53.13-53.131 0-13.961-5.381-27.15-15.151-37.14a7.499 7.499 0 0 0-10.606-.117 7.5 7.5 0 0 0-.118 10.605c7.013 7.17 10.875 16.635 10.875 26.651 0 21.027-17.105 38.133-38.131 38.133zM253.618 267.048c20.893 0 39.961-11.48 49.763-29.961a7.5 7.5 0 0 0-13.252-7.028c-7.193 13.563-21.184 21.988-36.511 21.988s-29.317-8.426-36.51-21.988a7.501 7.501 0 0 0-13.252 7.028c9.802 18.48 28.869 29.961 49.762 29.961z" fill="#000000" opacity="1" data-original="#000000" class=""></path></g></svg>